<?xml version="1.0" encoding="utf-8"?>
<!-- Generator: Adobe Illustrator 26.0.2, SVG Export Plug-In . SVG Version: 6.00 Build 0)  -->
<svg version="1.1" xmlns="http://www.w3.org/2000/svg" xmlns:xlink="http://www.w3.org/1999/xlink" x="0px" y="0px"
	 viewBox="0 0 350 75" style="enable-background:new 0 0 350 75;" xml:space="preserve">
<style type="text/css">
	.st0{display:none;}
	.st1{display:inline;fill:#191675;stroke:#000000;stroke-miterlimit:10;}
	.st2{fill:#FFFFFF;}
	.st3{fill:#2C9D8A;}
</style>
<g id="Layer_2" class="st0">
	<rect x="-113.6" y="-88.3" class="st1" width="549.1" height="239.4"/>
</g>
<g id="Layer_1">
	<g id="subscriber">
		<g>
			<path class="st2" d="M109.6,61c0-0.5-0.1-0.9-0.3-1.4c-0.2-0.4-0.5-0.8-0.9-1.2c-0.4-0.4-0.9-0.7-1.6-1c-0.7-0.3-1.5-0.6-2.4-0.8
				c-1.2-0.3-2.3-0.7-3.4-1.2c-1.1-0.5-2-1.1-2.8-1.8s-1.5-1.5-2-2.4c-0.5-0.9-0.7-2-0.7-3.1c0-1.1,0.2-2.2,0.7-3.1
				c0.5-0.9,1.2-1.7,2-2.4c0.9-0.7,1.9-1.2,3-1.5c1.2-0.4,2.4-0.5,3.8-0.5c1.4,0,2.7,0.2,3.9,0.6s2.2,1,3,1.7c0.8,0.7,1.5,1.6,2,2.6
				c0.5,1,0.7,2.1,0.7,3.4h-5.1c0-0.6-0.1-1.2-0.3-1.7c-0.2-0.5-0.5-0.9-0.9-1.3c-0.4-0.4-0.9-0.7-1.4-0.9c-0.6-0.2-1.2-0.3-2-0.3
				c-0.7,0-1.3,0.1-1.9,0.3c-0.5,0.2-1,0.4-1.4,0.7c-0.4,0.3-0.7,0.7-0.8,1.1c-0.2,0.4-0.3,0.9-0.3,1.4c0,0.5,0.1,1,0.4,1.4
				c0.3,0.4,0.6,0.8,1.1,1.1c0.5,0.3,1.1,0.6,1.8,0.9c0.7,0.3,1.5,0.5,2.3,0.8c1.2,0.4,2.4,0.8,3.4,1.3c1,0.5,1.9,1.1,2.7,1.9
				c0.8,0.7,1.3,1.5,1.8,2.4c0.4,0.9,0.6,1.9,0.6,3.1c0,1.2-0.2,2.3-0.7,3.2c-0.5,0.9-1.1,1.7-2,2.4c-0.8,0.6-1.9,1.1-3,1.5
				c-1.2,0.3-2.4,0.5-3.8,0.5c-0.9,0-1.7-0.1-2.6-0.2c-0.9-0.2-1.7-0.4-2.4-0.7c-0.8-0.3-1.5-0.7-2.2-1.2c-0.7-0.5-1.3-1.1-1.7-1.7
				c-0.5-0.6-0.9-1.4-1.2-2.2c-0.3-0.8-0.4-1.7-0.4-2.7h5.1c0,0.8,0.2,1.5,0.4,2.1c0.3,0.6,0.6,1.1,1.1,1.4c0.5,0.4,1,0.6,1.7,0.8
				c0.7,0.2,1.4,0.3,2.2,0.3c0.7,0,1.3-0.1,1.9-0.2c0.5-0.2,1-0.4,1.4-0.7c0.4-0.3,0.7-0.6,0.9-1C109.5,62,109.6,61.5,109.6,61z"/>
			<path class="st2" d="M131.5,65.3c-0.7,1-1.5,1.8-2.5,2.4c-1,0.6-2,0.9-3.2,0.9c-1,0-2-0.2-2.9-0.5c-0.9-0.3-1.6-0.8-2.2-1.5
				c-0.6-0.7-1.1-1.6-1.4-2.7c-0.3-1.1-0.5-2.4-0.5-3.9V47.9h5.2v12c0,0.8,0.1,1.5,0.2,2.1c0.1,0.6,0.3,1,0.6,1.4
				c0.3,0.3,0.6,0.6,1,0.7c0.4,0.1,0.9,0.2,1.5,0.2c1,0,1.9-0.2,2.5-0.6c0.6-0.4,1.1-0.9,1.5-1.6V47.9h5.2v20.2h-4.7L131.5,65.3z"/>
			<path class="st2" d="M159.8,58.2c0,1.5-0.2,2.9-0.5,4.1c-0.3,1.3-0.8,2.3-1.5,3.2c-0.7,0.9-1.5,1.6-2.5,2.1
				c-1,0.5-2.1,0.8-3.4,0.8c-1.2,0-2.2-0.2-3.1-0.7c-0.9-0.4-1.6-1.1-2.2-1.9l-0.2,2.1h-4.7V39.5h5.2v10.3c0.6-0.7,1.3-1.2,2.1-1.6
				c0.8-0.4,1.8-0.6,2.9-0.6c1.3,0,2.5,0.3,3.5,0.8c1,0.5,1.8,1.2,2.5,2.1c0.7,0.9,1.2,2,1.5,3.3c0.3,1.3,0.5,2.6,0.5,4.1V58.2z
				 M154.6,57.9c0-0.8-0.1-1.6-0.2-2.3c-0.1-0.7-0.3-1.4-0.6-1.9c-0.3-0.6-0.7-1-1.2-1.3c-0.5-0.3-1.2-0.5-2-0.5
				c-0.9,0-1.7,0.2-2.3,0.6c-0.6,0.4-1,0.9-1.4,1.6v8c0.3,0.7,0.8,1.2,1.4,1.6c0.6,0.4,1.4,0.6,2.3,0.6c0.8,0,1.4-0.2,1.9-0.5
				c0.5-0.3,0.9-0.7,1.2-1.3c0.3-0.5,0.5-1.2,0.6-1.9c0.1-0.7,0.2-1.5,0.2-2.4V57.9z"/>
			<path class="st2" d="M177.5,62.6c0-0.3-0.1-0.6-0.2-0.8c-0.1-0.2-0.4-0.5-0.8-0.7c-0.4-0.2-0.9-0.4-1.5-0.6
				c-0.6-0.2-1.4-0.3-2.3-0.5c-1.2-0.2-2.3-0.5-3.2-0.9s-1.8-0.8-2.5-1.3c-0.7-0.5-1.2-1.1-1.6-1.7c-0.4-0.7-0.6-1.4-0.6-2.3
				c0-0.8,0.2-1.6,0.6-2.4s1-1.4,1.7-2c0.7-0.6,1.7-1,2.7-1.4c1.1-0.3,2.3-0.5,3.6-0.5c1.4,0,2.7,0.2,3.8,0.5s2.1,0.8,2.8,1.4
				c0.8,0.6,1.4,1.3,1.8,2.1c0.4,0.8,0.6,1.7,0.6,2.6h-5.2c0-0.8-0.3-1.4-1-2c-0.6-0.5-1.6-0.8-2.9-0.8c-1.2,0-2.1,0.2-2.7,0.7
				c-0.6,0.4-0.9,1-0.9,1.6c0,0.3,0.1,0.6,0.2,0.8c0.1,0.3,0.3,0.5,0.7,0.7c0.3,0.2,0.7,0.4,1.3,0.6c0.5,0.2,1.2,0.3,2.1,0.4
				c1.2,0.2,2.4,0.5,3.4,0.8s1.9,0.7,2.7,1.2c0.8,0.5,1.4,1.1,1.8,1.8c0.4,0.7,0.6,1.5,0.6,2.5c0,0.9-0.2,1.7-0.6,2.5
				c-0.4,0.8-1,1.4-1.8,1.9s-1.7,1-2.9,1.3c-1.1,0.3-2.4,0.5-3.7,0.5c-1.5,0-2.9-0.2-4-0.6s-2.1-0.9-2.9-1.6
				c-0.8-0.6-1.4-1.4-1.8-2.2c-0.4-0.8-0.6-1.6-0.6-2.5h4.9c0,0.5,0.2,1,0.4,1.4c0.3,0.4,0.6,0.7,1,1c0.4,0.2,0.9,0.4,1.4,0.5
				c0.5,0.1,1.1,0.2,1.6,0.2c1.3,0,2.3-0.2,2.9-0.6C177.2,63.8,177.5,63.2,177.5,62.6z"/>
			<path class="st2" d="M196.4,64.4c0.5,0,1-0.1,1.5-0.2s0.9-0.4,1.2-0.6c0.3-0.3,0.6-0.6,0.8-1c0.2-0.4,0.3-0.8,0.3-1.3h4.9
				c0,1-0.2,2-0.6,2.9c-0.5,0.9-1.1,1.7-1.9,2.3c-0.8,0.6-1.7,1.2-2.7,1.5c-1,0.4-2.1,0.6-3.3,0.6c-1.6,0-2.9-0.3-4.1-0.8
				c-1.2-0.5-2.2-1.3-3-2.2c-0.8-0.9-1.4-2-1.8-3.2c-0.4-1.2-0.6-2.6-0.6-4v-0.6c0-1.4,0.2-2.7,0.6-4s1-2.3,1.8-3.2
				c0.8-0.9,1.8-1.6,3-2.2c1.2-0.5,2.5-0.8,4.1-0.8c1.2,0,2.4,0.2,3.5,0.6c1.1,0.4,2,0.9,2.7,1.6c0.8,0.7,1.4,1.5,1.8,2.5
				s0.6,2,0.6,3.2h-4.9c0-0.5,0-1-0.2-1.4c-0.2-0.4-0.4-0.8-0.8-1.2s-0.7-0.6-1.2-0.8c-0.5-0.2-1-0.3-1.5-0.3c-0.8,0-1.5,0.2-2,0.5
				s-1,0.8-1.3,1.3c-0.3,0.6-0.5,1.2-0.7,1.9c-0.1,0.7-0.2,1.5-0.2,2.2v0.6c0,0.8,0.1,1.5,0.2,2.3s0.3,1.4,0.7,1.9
				c0.3,0.6,0.7,1,1.3,1.3C194.8,64.2,195.5,64.4,196.4,64.4z"/>
			<path class="st2" d="M224.8,47.6c0.8,0,1.5,0.1,2.2,0.2s1.2,0.2,1.6,0.3l-0.8,5.2c-0.7-0.2-1.4-0.3-2.1-0.4
				c-0.7-0.1-1.4-0.1-2-0.1c-1.5,0-2.6,0.3-3.5,0.8c-0.9,0.6-1.5,1.4-2,2.4v12.1h-5.2V47.9h4.8l0.2,3.3c0.8-1.1,1.8-2,2.9-2.7
				C222.2,47.9,223.5,47.6,224.8,47.6z"/>
			<path class="st2" d="M234.7,47.9h11v16h5.5v4.2h-16.5v-4.2h5.7V52.2h-5.7V47.9z M240,42.8c0-0.4,0.1-0.8,0.2-1.1
				c0.1-0.3,0.3-0.6,0.6-0.9c0.3-0.2,0.6-0.4,0.9-0.6s0.8-0.2,1.2-0.2c0.9,0,1.7,0.3,2.2,0.8c0.5,0.5,0.8,1.2,0.8,2s-0.3,1.5-0.8,2
				c-0.5,0.5-1.3,0.8-2.2,0.8c-0.4,0-0.9-0.1-1.2-0.2s-0.7-0.3-0.9-0.6c-0.3-0.2-0.5-0.5-0.6-0.9C240.1,43.5,240,43.2,240,42.8z"/>
			<path class="st2" d="M274.4,58.2c0,1.5-0.2,2.9-0.5,4.1s-0.8,2.3-1.5,3.2c-0.7,0.9-1.5,1.6-2.5,2.1c-1,0.5-2.1,0.8-3.4,0.8
				c-1.2,0-2.2-0.2-3.1-0.7c-0.9-0.4-1.6-1.1-2.2-1.9l-0.2,2.1h-4.7V39.5h5.2v10.3c0.6-0.7,1.3-1.2,2.1-1.6c0.8-0.4,1.8-0.6,2.9-0.6
				c1.3,0,2.5,0.3,3.5,0.8c1,0.5,1.8,1.2,2.5,2.1c0.7,0.9,1.2,2,1.5,3.3c0.3,1.3,0.5,2.6,0.5,4.1V58.2z M269.2,57.9
				c0-0.8-0.1-1.6-0.2-2.3s-0.3-1.4-0.6-1.9c-0.3-0.6-0.7-1-1.2-1.3c-0.5-0.3-1.2-0.5-2-0.5c-0.9,0-1.7,0.2-2.3,0.6
				c-0.6,0.4-1,0.9-1.4,1.6v8c0.3,0.7,0.8,1.2,1.4,1.6c0.6,0.4,1.4,0.6,2.3,0.6c0.8,0,1.4-0.2,1.9-0.5c0.5-0.3,0.9-0.7,1.2-1.3
				c0.3-0.5,0.5-1.2,0.6-1.9s0.2-1.5,0.2-2.4V57.9z"/>
			<path class="st2" d="M288.9,68.5c-1.6,0-3-0.3-4.2-0.8s-2.4-1.2-3.3-2.1s-1.6-1.9-2.1-3.1c-0.5-1.2-0.7-2.5-0.7-3.8V58
				c0-1.5,0.2-3,0.7-4.2c0.5-1.3,1.2-2.4,2-3.3c0.9-0.9,1.9-1.6,3.1-2.1c1.2-0.5,2.5-0.8,3.9-0.8c1.5,0,2.8,0.2,3.9,0.7
				s2.1,1.2,2.9,2c0.8,0.9,1.4,1.9,1.8,3.1c0.4,1.2,0.6,2.6,0.6,4.1v2.2h-13.7c0.1,0.7,0.3,1.3,0.6,1.9c0.3,0.6,0.7,1.1,1.2,1.5
				s1,0.7,1.6,1c0.6,0.2,1.3,0.3,2,0.3c0.5,0,1,0,1.5-0.1s1-0.2,1.4-0.4s0.9-0.4,1.3-0.7c0.4-0.3,0.7-0.6,1-1l2.6,2.8
				c-0.3,0.5-0.7,0.9-1.3,1.4s-1.1,0.8-1.8,1.2c-0.7,0.3-1.5,0.6-2.3,0.8C290.9,68.4,289.9,68.5,288.9,68.5z M288.3,51.8
				c-0.6,0-1.1,0.1-1.6,0.3c-0.5,0.2-0.9,0.5-1.3,0.9c-0.4,0.4-0.7,0.8-0.9,1.4c-0.2,0.5-0.4,1.1-0.6,1.8h8.5v-0.4
				c0-0.5-0.1-1.1-0.3-1.5c-0.2-0.5-0.5-0.9-0.8-1.3s-0.8-0.6-1.3-0.8C289.6,51.9,289,51.8,288.3,51.8z"/>
			<path class="st2" d="M316.6,47.6c0.8,0,1.5,0.1,2.2,0.2s1.2,0.2,1.6,0.3l-0.8,5.2c-0.7-0.2-1.4-0.3-2.1-0.4
				c-0.7-0.1-1.4-0.1-2-0.1c-1.5,0-2.6,0.3-3.5,0.8c-0.9,0.6-1.5,1.4-2,2.4v12.1h-5.2V47.9h4.8l0.2,3.3c0.8-1.1,1.8-2,2.9-2.7
				S315.2,47.6,316.6,47.6z"/>
		</g>
	</g>
	<g id="archivist">
		<polygon id="A" class="st2" points="183.9,31.1 192.7,8 196.6,8 205.4,31.1 201,31.1 194.7,13.5 188.3,31.1 		"/>
		<path class="st3" d="M197.7,26.2l-1.8,1.6v-5.2v-0.7v-1.8c0-0.8-0.6-1.4-1.3-1.4c-0.7,0-1.3,0.6-1.3,1.4v1.8v0.7v5.2l-1.8-1.6
			l-1.2,1.2l4.3,3.9l4.3-3.9L197.7,26.2z"/>
		<path class="st2" d="M208.2,30.8V15.1h4.3v2.6c1.3-1.6,2.5-2.9,3.8-2.9c0.8-0.1,1.6,0,2.2,0.3v4.4c-2.7-1.3-4.6,0.2-6.2,2.6v8.7
			H208.2z"/>
		<path class="st2" d="M233.4,19.8v-3.6c-3.2-2.5-6.5-2-9.8,0c-4.8,5.6-3.7,9.8,0,13.5c3.4,2.2,6.7,2.3,9.8,0v-3.4
			c-2.7,1.4-5.2,1.9-7.3,0c-1.9-2.3-1.9-4.5,0-6.4C228.2,18.2,230.7,18.2,233.4,19.8z"/>
		<path class="st2" d="M237.1,8h4.2v9.1c2.7-3.1,5.7-3.9,9.6,0c0,0,1.1,1,1.1,3.3c0,2.2,0,10.7,0,10.7h-4.4V20.9
			c-1.7-3.7-3.9-2.8-6.2-0.3V31H237L237.1,8z"/>
		<polygon class="st2" points="255.6,15.1 255.6,18.4 257.8,18.4 257.8,31 262,31 262,15.1 		"/>
		<circle class="st2" cx="259.8" cy="9.4" r="2.8"/>
		<polygon class="st2" points="265,15.1 269.6,15.1 273.5,24.6 277.7,15.1 282.8,15.1 274.9,31 272.4,31 		"/>
		<polygon class="st2" points="284.3,15.1 284.3,18.4 286.9,18.4 286.9,31 290.9,31 290.9,15.1 		"/>
		<circle class="st2" cx="288.7" cy="9.2" r="2.5"/>
		<path class="st2" d="M306,16.2v3.4c-2.6-1.3-6.4-2-6.7,0c-0.3,2,3.7,2.3,5.6,3.4c3.6,2.8,1.7,9-5.6,8.6c-1.6-0.2-3-0.7-4.5-1.6
			v-3.6c1.4,0.7,2.8,1.3,4,1.5c1.4,0.2,3,0.2,3.3-1.5c-0.2-0.8-1.2-1.1-2.5-1.7c-1-0.4-2.2-1.1-3.3-1.5c-1.6-2.1-1.6-4.4,0-6.9
			C299.7,14.1,303,13.9,306,16.2z"/>
		<path class="st2" d="M311.7,18.4v8.5c0,4.2,4.8,6.1,8.7,3.3v-3.5c-1.5,1-3,1.1-4.5,0v-8.3h4.5v-3.6h-4.5v-4.5h-2.2
			c-0.7,2.8-2.3,4.8-4.8,5.9v2.2L311.7,18.4z"/>
	</g>
	<g id="tube">
		<g id="T_00000039852614045324270430000005353782644941079486_">
			<polygon class="st2" points="94.7,8.3 94.7,12.3 101.3,12.3 101.3,18.4 105.5,18.4 105.5,12.3 111.9,12.3 111.9,8.3 			"/>
			<rect x="101.3" y="22.6" class="st2" width="4.1" height="9"/>
			<path class="st3" d="M105.8,21.7H101c-0.7,0-1.3-0.6-1.3-1.3l0,0c0-0.7,0.6-1.3,1.3-1.3h4.8c0.7,0,1.3,0.6,1.3,1.3l0,0
				C107.1,21.1,106.5,21.7,105.8,21.7z"/>
		</g>
		<path id="u" class="st2" d="M113.1,15.1h4.2v9.7c0,3.6,6.2,3.6,6.2,0v-9.7h4v9.8c0,3.9-2.7,6.3-7.1,6.4c-4.2,0-7.3-2.5-7.3-5.9
			C113.1,25.4,113.1,15.1,113.1,15.1z"/>
		<path id="b" class="st2" d="M146.8,17.4c-3.2-3.6-6.7-3.9-10.7-0.7V8h-4.2v23h4.2v-2.4c3.2,3.5,6.7,4,10.7,0
			C148.9,25,149,21.3,146.8,17.4z M139.9,27.2c-2.2-0.4-3.3-1.5-3.5-3.5v-3.1c0.8-1.1,1.9-1.8,3.2-2.1c2.9,0,4.4,1.5,4.5,4.5
			C143.9,26,142.4,27.3,139.9,27.2z"/>
		<path id="e" class="st2" d="M166.8,20.9c-2.3-8.7-13-8.4-15.4,0c-0.8,4.7,1,8,5,10.1c3.4,0.9,6.4,0.5,9-1.4v-3.9
			c-4.8,2.9-8.3,2.9-10.1-1.4h11.6L166.8,20.9L166.8,20.9z M155.2,21.5c0,0,0.3-3.4,4.2-3.4c3.4,0,3.4,3.4,3.4,3.4H155.2z"/>
	</g>
	<g id="icon">
		<path class="st3" d="M27.6,33.7l1,0.4l0.5-2l-6.7-2l-0.7,2l0.9,0.4C20.9,44.4,25,54.5,34,61.9l2.9-4
			C29.6,51.4,25.8,43.2,27.6,33.7z"/>
		<path class="st3" d="M41.2,60.5l0.6-0.8l-1.8-1.3L35.7,64l1.8,1.3l0.6-0.7c10.7,5.7,21.9,4.7,31.8-1.5l-3.1-4.1
			C58.3,63.9,49.9,65.3,41.2,60.5z"/>
		<path class="st3" d="M70.8,55.6l-0.7-0.7l-1.8,1.3l4.3,5.9l1.8-1.3L73.9,60c8.7-8.5,11.2-18.7,8.4-30l-4.9,1.4
			C79.3,40.9,78,48.7,70.8,55.6z"/>
		<path class="st3" d="M75.5,26.5l-0.9,0.4l0.6,2.4l7.2-2.1l-0.7-2.4l-0.9,0.3c-5.7-10.7-15-17.4-26.6-17.9v5.4
			C63.8,13.4,70.9,17.6,75.5,26.5z"/>
		<path class="st3" d="M49,12.8l0.1,0.9l2.3-0.1v-7l-2.3,0l0,0.9C40,8.8,28.6,14.8,24,27.6l4.9,1.4C32.4,19,40.2,14.7,49,12.8z"/>
		<polygon id="A_00000111884739883312047940000001222474654974762168_" class="st2" points="48,54 60.6,20.9 66.1,20.9 78.8,54 
			72.5,54 63.4,28.8 54.3,54 		"/>
		<g id="T">
			<polygon class="st2" points="27.6,20.4 27.6,26.1 37.1,26.1 37.1,35 43.1,35 43.1,26.1 52.4,26.1 52.4,20.4 			"/>
			<rect x="37.1" y="41" class="st2" width="6" height="13"/>
		</g>
		<path class="st3" d="M43.5,39.7h-6.9c-1,0-1.9-0.8-1.9-1.9l0,0c0-1,0.8-1.9,1.9-1.9h6.9c1,0,1.9,0.8,1.9,1.9l0,0
			C45.4,38.9,44.5,39.7,43.5,39.7z"/>
		<path class="st3" d="M67.8,47l-2.5,2.3v-7.5v-1v-2.5c0-1.1-0.8-2-1.9-2c-1.1,0-1.9,0.9-1.9,2v2.5v1v7.5L58.9,47l-1.7,1.7l6.2,5.6
			l6.1-5.6L67.8,47z"/>
	</g>
</g>
</svg>
